<svg width="24" height="24" viewBox="0 0 24 24" fill="none" xmlns="http://www.w3.org/2000/svg">
<path d="M23.0069 11.4291C22.8976 9.30274 22.174 7.25365 20.9238 5.53013C19.6736 3.80661 17.9505 2.48262 15.9631 1.71856C13.9757 0.954509 11.8093 0.783182 9.72654 1.22534C7.64375 1.6675 5.73387 2.70416 4.22829 4.20974C2.72271 5.71531 1.68605 7.62519 1.24389 9.70799C0.801737 11.7908 0.973064 13.9571 1.73712 15.9445C2.50117 17.9319 3.82516 19.6551 5.54868 20.9053C7.27221 22.1555 9.32129 22.879 11.4477 22.9883C12.9848 23.0605 14.5201 22.8109 15.9552 22.2556C17.3903 21.7002 18.6936 20.8513 19.7818 19.7632C20.8699 18.6751 21.7188 17.3718 22.2741 15.9366C22.8295 14.5015 23.0791 12.9663 23.0069 11.4291ZM13.6082 18.4334C13.5405 18.7196 13.3977 18.9824 13.1944 19.1948C12.9912 19.4073 12.7349 19.5616 12.4521 19.6419C12.1693 19.7222 11.8701 19.7255 11.5856 19.6515C11.3011 19.5775 11.0414 19.4289 10.8335 19.221C10.6257 19.0131 10.477 18.7535 10.403 18.4689C10.329 18.1844 10.3324 17.8853 10.4126 17.6024C10.4929 17.3196 10.6472 17.0633 10.8597 16.8601C11.0721 16.6569 11.335 16.514 11.6211 16.4464C11.8951 16.3816 12.1812 16.3879 12.4521 16.4648C12.723 16.5417 12.9697 16.6866 13.1688 16.8857C13.368 17.0848 13.5129 17.3315 13.5898 17.6024C13.6666 17.8733 13.673 18.1594 13.6082 18.4334ZM13.099 13.5291V14.1621C13.1033 14.4203 13.0191 14.6723 12.8604 14.8761C12.7017 15.0798 12.478 15.2232 12.2266 15.2822C12.066 15.3163 11.8999 15.314 11.7403 15.2755C11.5808 15.2371 11.4318 15.1635 11.3044 15.0601C11.177 14.9566 11.0743 14.826 11.0038 14.6778C10.9334 14.5296 10.897 14.3675 10.8973 14.2033V13.1245C10.8973 12.8325 11.0132 12.5525 11.2197 12.3461C11.4262 12.1396 11.7062 12.0236 11.9981 12.0236L12.455 12.0016C13.1147 11.8627 13.7023 11.4908 14.1102 10.9541C14.518 10.4173 14.7189 9.75157 14.676 9.07878C14.6265 8.40195 14.3356 7.76541 13.8562 7.28504C13.3768 6.80467 12.7409 6.5124 12.0642 6.46145C11.6728 6.43428 11.2802 6.48984 10.9117 6.62451C10.5433 6.75918 10.2073 6.96994 9.92574 7.24307C9.79053 7.38477 9.61107 7.47616 9.41695 7.50217C9.22283 7.52819 9.02564 7.48728 8.85789 7.38619C8.75476 7.31904 8.66794 7.22969 8.60378 7.12467C8.53962 7.01965 8.49976 6.90162 8.48709 6.77921C8.47443 6.65679 8.48929 6.5331 8.53059 6.41717C8.57189 6.30124 8.63858 6.19601 8.72579 6.10917C9.18737 5.64485 9.74622 5.28872 10.3621 5.06646C10.9779 4.84421 11.6354 4.76136 12.2871 4.8239C13.3238 4.91561 14.2956 5.36751 15.0337 6.10113C15.7719 6.83474 16.2298 7.80373 16.3279 8.8398C16.426 9.87588 16.1582 10.9136 15.5708 11.7727C14.9835 12.6319 14.1138 13.2582 13.1128 13.5428L13.099 13.5291Z" fill="white"/>
</svg>
