<svg width="30" height="30" viewBox="0 0 30 30" fill="none" xmlns="http://www.w3.org/2000/svg">
<path d="M15 30C23.2843 30 30 23.2843 30 15C30 6.71573 23.2843 0 15 0C6.71573 0 0 6.71573 0 15C0 23.2843 6.71573 30 15 30Z" fill="white"/>
<path d="M21.5698 12.6602H17.3398V16.8902H21.5698V12.6602Z" fill="#2B2B30"/>
<path d="M13.1092 18.4802C13.1092 19.3502 12.3892 20.0702 11.5192 20.0702C10.6492 20.0702 9.92922 19.3502 9.92922 18.4802C9.92922 17.6102 10.6492 16.8902 11.5192 16.8902H13.1092V12.6602H11.5192C8.30922 12.6602 5.69922 15.2702 5.69922 18.4802C5.69922 21.6902 8.30922 24.3002 11.5192 24.3002C14.7292 24.3002 17.3392 21.6902 17.3392 18.4802V16.8902H13.1092V18.4802Z" fill="#2B2B30"/>
<path d="M18.9294 10.5298H23.6994V6.2998H18.9294C15.7194 6.2998 13.1094 8.90981 13.1094 12.1198V12.6598H17.3394V12.1198C17.3394 11.2498 18.0594 10.5298 18.9294 10.5298Z" fill="#2B2B30"/>
<path d="M17.3394 12.6602H13.1094V16.8902H17.3394V12.6602Z" fill="white"/>
</svg>
