<svg width="28" height="28" viewBox="0 0 28 28" fill="none" xmlns="http://www.w3.org/2000/svg">
<path d="M14.0008 3.17817C17.5253 3.17817 17.9428 3.19164 19.3347 3.25514C20.6217 3.31383 21.3206 3.52887 21.7858 3.70964C22.4019 3.94909 22.8416 4.23513 23.3035 4.69701C23.7654 5.15895 24.0515 5.59866 24.2909 6.2148C24.4717 6.67993 24.6867 7.37886 24.7454 8.66584C24.8089 10.0577 24.8224 10.4752 24.8224 13.9997C24.8224 17.5243 24.8089 17.9418 24.7454 19.3337C24.6867 20.6207 24.4717 21.3196 24.2909 21.7847C24.0515 22.4009 23.7654 22.8406 23.3036 23.3025C22.8416 23.7644 22.4019 24.0504 21.7858 24.2899C21.3206 24.4707 20.6217 24.6857 19.3347 24.7444C17.943 24.8079 17.5256 24.8213 14.0008 24.8213C10.476 24.8213 10.0586 24.8079 8.66685 24.7444C7.37986 24.6857 6.68093 24.4707 6.2158 24.2899C5.59966 24.0504 5.15994 23.7644 4.69805 23.3025C4.23617 22.8406 3.95008 22.4009 3.71062 21.7847C3.52985 21.3196 3.31481 20.6207 3.25613 19.3337C3.19262 17.9418 3.17916 17.5243 3.17916 13.9997C3.17916 10.4752 3.19262 10.0577 3.25613 8.66584C3.31481 7.37886 3.52985 6.67993 3.71062 6.2148C3.95008 5.59866 4.23612 5.15895 4.69805 4.69706C5.15994 4.23513 5.59966 3.94909 6.2158 3.70964C6.68093 3.52887 7.37986 3.31383 8.66685 3.25514C10.0587 3.19164 10.4762 3.17817 14.0008 3.17817ZM14.0008 0.799805C10.4159 0.799805 9.96636 0.815 8.55844 0.879239C7.15345 0.943321 6.1939 1.16648 5.35428 1.49276C4.48626 1.83009 3.75013 2.28144 3.01625 3.01527C2.28242 3.74914 1.83107 4.48527 1.49379 5.35329C1.16746 6.1929 0.944298 7.15245 0.880216 8.55744C0.815977 9.96535 0.800781 10.4149 0.800781 13.9997C0.800781 17.5847 0.815977 18.0342 0.880216 19.4421C0.944298 20.8471 1.16746 21.8066 1.49379 22.6462C1.83107 23.5142 2.28242 24.2504 3.01625 24.9843C3.75013 25.7181 4.48626 26.1694 5.35428 26.5067C6.1939 26.833 7.15345 27.0562 8.55844 27.1203C9.96636 27.1845 10.4159 27.1997 14.0008 27.1997C17.5857 27.1997 18.0352 27.1845 19.4431 27.1203C20.8481 27.0562 21.8077 26.833 22.6473 26.5067C23.5153 26.1694 24.2514 25.7181 24.9853 24.9843C25.7191 24.2504 26.1705 23.5142 26.5078 22.6462C26.8341 21.8066 27.0573 20.8471 27.1213 19.4421C27.1856 18.0342 27.2008 17.5847 27.2008 13.9997C27.2008 10.4149 27.1856 9.96535 27.1213 8.55744C27.0573 7.15245 26.8341 6.1929 26.5078 5.35329C26.1705 4.48527 25.7191 3.74914 24.9853 3.01527C24.2514 2.28144 23.5153 1.83009 22.6473 1.49276C21.8077 1.16648 20.8481 0.943321 19.4431 0.879239C18.0352 0.815 17.5857 0.799805 14.0008 0.799805Z" fill="white"/>
<path d="M14.0069 7.22754C10.2633 7.22754 7.22852 10.2623 7.22852 14.0059C7.22852 17.7495 10.2633 20.7842 14.0069 20.7842C17.7505 20.7842 20.7853 17.7495 20.7853 14.0059C20.7853 10.2623 17.7505 7.22754 14.0069 7.22754ZM14.0069 18.4059C11.5768 18.4059 9.60689 16.4359 9.60689 14.0059C9.60689 11.5758 11.5768 9.6059 14.0069 9.6059C16.437 9.6059 18.4069 11.5758 18.4069 14.0059C18.4069 16.4359 16.437 18.4059 14.0069 18.4059Z" fill="white"/>
<path d="M22.6368 6.95512C22.6368 7.8299 21.9276 8.53909 21.0527 8.53909C20.178 8.53909 19.4688 7.8299 19.4688 6.95512C19.4688 6.08029 20.178 5.37109 21.0527 5.37109C21.9276 5.37109 22.6368 6.08029 22.6368 6.95512Z" fill="white"/>
</svg>
