<svg width="20" height="20" viewBox="0 0 20 20" fill="none" xmlns="http://www.w3.org/2000/svg">
<path d="M5.12816 17.8289C5.42547 18.1059 5.91118 18.0397 6.21253 17.6799L16.7715 5.10067C17.0731 4.74142 17.0767 4.22542 16.7791 3.94817L14.8718 2.17092C14.5745 1.89392 14.0888 1.96067 13.7872 2.31992L3.22849 14.8994C2.92691 15.2592 2.92335 15.7747 3.2209 16.0517L5.12816 17.8289Z" fill="white"/>
<path d="M5 8C6.65685 8 8 6.65685 8 5C8 3.34315 6.65685 2 5 2C3.34315 2 2 3.34315 2 5C2 6.65685 3.34315 8 5 8Z" fill="white"/>
<path d="M15 18C16.6569 18 18 16.6569 18 15C18 13.3431 16.6569 12 15 12C13.3431 12 12 13.3431 12 15C12 16.6569 13.3431 18 15 18Z" fill="white"/>
</svg>
