<svg width="21" height="28" viewBox="0 0 21 28" fill="none" xmlns="http://www.w3.org/2000/svg">
<path fill-rule="evenodd" clip-rule="evenodd" d="M10.9372 0.799805C3.7322 0.799805 0.0996094 5.9653 0.0996094 10.2728C0.0996094 12.8807 1.08717 15.2015 3.20502 16.0653C3.55235 16.2072 3.86339 16.0703 3.96404 15.6858C4.03417 15.4193 4.2 14.7477 4.27343 14.468C4.3749 14.0877 4.3353 13.9549 4.05479 13.6232C3.44427 12.903 3.05404 11.9707 3.05404 10.6498C3.05404 6.81674 5.92184 3.38628 10.5205 3.38628C14.5929 3.38628 16.8304 5.87537 16.8304 9.19776C16.8304 13.5704 14.8948 17.2608 12.0229 17.2608C10.4364 17.2608 9.24918 15.9482 9.62951 14.3394C10.0849 12.4187 10.9685 10.3446 10.9685 8.95852C10.9685 7.71768 10.3019 6.68226 8.92329 6.68226C7.30128 6.68226 5.99856 8.35954 5.99856 10.6069C5.99856 12.0383 6.48203 13.0069 6.48203 13.0069C6.48203 13.0069 4.82207 20.0387 4.53166 21.2704C3.95249 23.7232 4.44503 26.7296 4.48629 27.0332C4.51104 27.2131 4.74204 27.256 4.84682 27.119C4.99615 26.9243 6.92754 24.5392 7.58426 22.1565C7.7699 21.4824 8.65103 17.9885 8.65103 17.9885C9.17739 18.9934 10.7177 19.8786 12.3554 19.8786C17.2305 19.8786 20.5372 15.4342 20.5372 9.48489C20.5372 4.98848 16.7281 0.799805 10.9372 0.799805Z" fill="white"/>
</svg>
