<svg width="16" height="16" viewBox="0 0 16 16" fill="none" xmlns="http://www.w3.org/2000/svg">
<path d="M9.98875 4.61328L9.98875 1.23828M9.98875 1.23828L13.3638 1.23828M9.98875 1.23828L12.3753 3.6248C13.2406 4.49014 13.8299 5.59264 14.0686 6.7929C14.3074 7.99316 14.1849 9.23726 13.7165 10.3679C13.2482 11.4985 12.4552 12.4649 11.4376 13.1447C10.4201 13.8246 9.22381 14.1875 8.00003 14.1875C6.77626 14.1875 5.57997 13.8246 4.56244 13.1447C3.54491 12.4649 2.75185 11.4985 2.28353 10.3679C1.81521 9.23726 1.69268 7.99316 1.93142 6.7929C2.17017 5.59264 2.75947 4.49014 3.62481 3.6248" stroke="white" stroke-width="2" stroke-linecap="round" stroke-linejoin="round"/>
</svg>
