<svg width="24" height="24" viewBox="0 0 24 24" fill="none" xmlns="http://www.w3.org/2000/svg">
<path d="M15.3943 7.51059L15.6275 7.97711L16.1436 8.05279L21.549 8.84559L21.5595 8.84713L21.5701 8.84845C22.4107 8.95354 22.8186 9.99409 22.1458 10.6749L18.1894 14.4874L17.8063 14.8566L17.8984 15.3806L18.8353 20.7139L18.838 20.7294L18.8412 20.7448C19.0238 21.6211 18.1204 22.2997 17.3333 21.8913L12.5097 19.2996L12.0364 19.0453L11.5631 19.2996L6.73967 21.8913C5.97204 22.2895 5.01493 21.6344 5.16636 20.7089L6.10243 15.3806L6.19346 14.8624L5.81798 14.4938L1.92609 10.674L1.91923 10.6673L1.91224 10.6607C1.22009 10.007 1.62471 8.9536 2.43604 8.84777L2.43605 8.84787L2.44995 8.84586L7.92742 8.05307L8.45229 7.9771L8.68384 7.49998L11.0622 2.59908L11.0622 2.59909L11.0654 2.59241C11.4242 1.83899 12.5766 1.83899 12.9354 2.59241L12.9395 2.60109L12.9438 2.60969L15.3943 7.51059Z" stroke="white" stroke-width="2"/>
</svg>
