<svg width="40" height="24" viewBox="0 0 40 24" fill="none" xmlns="http://www.w3.org/2000/svg">
<rect width="40" height="24" rx="12" fill="#474D57"/>
<path d="M38 12C38 17.5228 33.5228 22 28 22C22.4772 22 18 17.5228 18 12C18 6.47715 22.4772 2 28 2C33.5228 2 38 6.47715 38 12Z" fill="white"/>
<g clip-path="url(#clip0_75_8935)">
<path d="M27.6382 6.17773C27.2083 6.57826 26.8636 7.06127 26.6244 7.59793C26.3853 8.13459 26.2568 8.71392 26.2464 9.30135C26.236 9.88879 26.3441 10.4723 26.5641 11.0171C26.7842 11.5618 27.1117 12.0567 27.5271 12.4721C27.9426 12.8876 28.4374 13.2151 28.9822 13.4351C29.5269 13.6552 30.1105 13.7632 30.6979 13.7529C31.2853 13.7425 31.8646 13.6139 32.4013 13.3748C32.938 13.1357 33.421 12.7909 33.8215 12.3611C33.636 15.4148 31.1008 17.8333 28.0004 17.8333C24.7781 17.8333 22.1665 15.2217 22.1665 12C22.1665 8.89957 24.585 6.3644 27.6382 6.17773Z" fill="#FEB204"/>
</g>
<defs>
<clipPath id="clip0_75_8935">
<rect width="14" height="14" fill="white" transform="translate(21 5)"/>
</clipPath>
</defs>
</svg>
