<svg width="20" height="20" viewBox="0 0 20 20" fill="none" xmlns="http://www.w3.org/2000/svg">
<path d="M10 0.25C8.07164 0.25 6.18657 0.821828 4.58319 1.89317C2.97982 2.96451 1.73013 4.48726 0.992179 6.26884C0.254225 8.05042 0.061142 10.0108 0.437348 11.9021C0.813554 13.7934 1.74215 15.5307 3.10571 16.8943C4.46928 18.2579 6.20656 19.1865 8.09787 19.5627C9.98919 19.9389 11.9496 19.7458 13.7312 19.0078C15.5127 18.2699 17.0355 17.0202 18.1068 15.4168C19.1782 13.8134 19.75 11.9284 19.75 10C19.747 7.41506 18.7188 4.93684 16.891 3.10901C15.0632 1.28118 12.5849 0.252988 10 0.25ZM13.9324 9.37671L10.5574 13.1267C10.4871 13.2049 10.4011 13.2673 10.3051 13.3101C10.2091 13.3529 10.1051 13.375 10 13.375C9.89489 13.375 9.79094 13.3529 9.69492 13.3101C9.59889 13.2673 9.51294 13.2049 9.44263 13.1267L6.06763 9.37671C6.00169 9.30352 5.95081 9.21806 5.91791 9.12521C5.88501 9.03235 5.87072 8.93393 5.87587 8.83555C5.88101 8.73717 5.90549 8.64077 5.9479 8.55186C5.99032 8.46295 6.04983 8.38326 6.12305 8.31735C6.19627 8.25145 6.28175 8.20061 6.37462 8.16776C6.46749 8.1349 6.56593 8.12066 6.6643 8.12585C6.76268 8.13105 6.85906 8.15557 6.94796 8.19803C7.03685 8.24049 7.11651 8.30004 7.18238 8.37329L10 11.5037L12.8176 8.37329C12.8835 8.30004 12.9632 8.24049 13.0521 8.19803C13.1409 8.15557 13.2373 8.13105 13.3357 8.12585C13.4341 8.12066 13.5325 8.1349 13.6254 8.16776C13.7183 8.20061 13.8037 8.25145 13.877 8.31735C13.9502 8.38326 14.0097 8.46295 14.0521 8.55186C14.0945 8.64077 14.119 8.73717 14.1241 8.83555C14.1293 8.93393 14.115 9.03235 14.0821 9.12521C14.0492 9.21806 13.9983 9.30352 13.9324 9.37671Z" fill="white"/>
</svg>
