<svg width="18" height="24" viewBox="0 0 18 24" fill="none" xmlns="http://www.w3.org/2000/svg">
<path d="M8.89247 6.23744C4.01491 6.23744 0 10.1689 0 15.0845C0 19.9658 4.01491 24 8.89247 24C13.8036 24 17.8185 19.9658 17.8185 15.0845C17.8185 10.1689 13.8036 6.23744 8.89247 6.23744ZM8.89247 19.0845C6.76937 19.0845 5.07647 17.3219 5.07647 15.0845C5.07647 12.8139 6.76937 11.153 8.89247 11.153C11.0167 11.153 12.742 12.8139 12.742 15.0845C12.742 17.3219 11.0167 19.0845 8.89247 19.0845ZM0.995626 0.576484V4.30479C0.995626 4.60959 1.29398 4.91552 1.72531 4.91552H16.2597C16.691 4.91552 16.9558 4.60959 16.9558 4.30479V0.576484C16.9558 0.304795 16.691 0 16.2597 0H1.72531C1.29398 0 0.995626 0.304795 0.995626 0.576484Z" fill="white"/>
</svg>
