<svg width="28" height="22" viewBox="0 0 28 22" fill="none" xmlns="http://www.w3.org/2000/svg">
<path fill-rule="evenodd" clip-rule="evenodd" d="M27.2008 2.53951C26.2302 2.97068 25.1857 3.26106 24.0902 3.39217C25.2086 2.72165 26.0674 1.66045 26.4713 0.395971C25.4259 1.01721 24.2653 1.46686 23.0325 1.71061C22.0443 0.658196 20.6355 0 19.0789 0C16.088 0 13.6629 2.42512 13.6629 5.41604C13.6629 5.84017 13.7113 6.25374 13.8037 6.6506C9.3019 6.42533 5.31136 4.26859 2.63986 0.991693C2.17349 1.79156 1.90687 2.72167 1.90687 3.71424C1.90687 5.59292 2.8616 7.25073 4.31615 8.22218C3.42741 8.19402 2.59322 7.95027 1.86199 7.54462V7.61237C1.86199 10.2372 3.7301 12.4257 6.20626 12.9246C5.75221 13.0478 5.27352 13.1147 4.77988 13.1147C4.43054 13.1147 4.09088 13.0803 3.76002 13.017C4.44902 15.1684 6.45 16.7347 8.81969 16.7787C6.96653 18.2306 4.63116 19.0974 2.09341 19.0974C1.6552 19.0974 1.22403 19.0718 0.800781 19.0208C3.19774 20.5572 6.04435 21.4547 9.10303 21.4547C19.0648 21.4547 24.5126 13.2018 24.5126 6.04519C24.5126 5.81025 24.5082 5.57619 24.4967 5.34477C25.5562 4.57922 26.4748 3.62536 27.2008 2.53951Z" fill="white"/>
</svg>
