<svg width="29" height="20" viewBox="0 0 29 20" fill="none" xmlns="http://www.w3.org/2000/svg">
<path fill-rule="evenodd" clip-rule="evenodd" d="M27.4298 1.61549C27.8688 2.0545 28.1851 2.60085 28.3473 3.20015C29.2811 6.9589 29.0653 12.8953 28.3654 16.7991C28.2032 17.3984 27.8869 17.9447 27.4479 18.3837C27.0089 18.8227 26.4625 19.1391 25.8632 19.3013C23.6693 19.8996 14.839 19.8996 14.839 19.8996C14.839 19.8996 6.00882 19.8996 3.81486 19.3013C3.21556 19.1391 2.6692 18.8227 2.23019 18.3837C1.79118 17.9447 1.47484 17.3984 1.31267 16.7991C0.373435 13.0566 0.630909 7.11664 1.29454 3.21829C1.4567 2.61899 1.77305 2.07262 2.21206 1.63361C2.65107 1.1946 3.19743 0.878259 3.79673 0.716097C5.99069 0.117737 14.8209 0.0996094 14.8209 0.0996094C14.8209 0.0996094 23.6511 0.0996094 25.8451 0.697959C26.4444 0.860132 26.9907 1.17648 27.4298 1.61549ZM19.3357 9.9996L12.0105 14.2425V5.75674L19.3357 9.9996Z" fill="white"/>
</svg>
